<?xml version="1.0" standalone="no"?><!DOCTYPE svg PUBLIC "-//W3C//DTD SVG 1.1//EN" "http://www.w3.org/Graphics/SVG/1.1/DTD/svg11.dtd"><svg t="1543210796107" class="icon" style="" viewBox="0 0 1032 1024" version="1.1" xmlns="http://www.w3.org/2000/svg" p-id="1983" xmlns:xlink="http://www.w3.org/1999/xlink" width="48.375" height="48"><defs><style type="text/css"></style></defs><path d="M713.825367 560.856612l-300.273602 150.115183a54.606992 54.606992 0 0 1-79.035298-48.856612V361.884817a54.606992 54.606992 0 0 1 79.035298-48.856612l300.273602 150.136801a54.606992 54.606992 0 0 1 0 97.713224z" p-id="1984" fill="#ffffff"></path><path d="M512 1024C229.236953 1024 0 794.784665 0 512 0 229.236953 229.236953 0 512 0c282.763047 0 512 229.236953 512 512 0 282.763047-229.215335 512-512 512z m0-27.303496c267.695322 0 484.696504-217.001182 484.696504-484.674886 0-267.71694-217.001182-484.718122-484.674886-484.718122-267.71694 0-484.718122 217.001182-484.718122 484.696504s217.001182 484.696504 484.696504 484.696504z" p-id="1985" fill="#ffffff"></path></svg>